<?xml version="1.0" encoding="utf-8"?>
<!-- Generator: Adobe Illustrator 28.0.0, SVG Export Plug-In . SVG Version: 6.00 Build 0)  -->
<svg version="1.1" xmlns="http://www.w3.org/2000/svg" xmlns:xlink="http://www.w3.org/1999/xlink" x="0px" y="0px"
	 viewBox="0 0 100 100" style="enable-background:new 0 0 100 100;" xml:space="preserve">
<style type="text/css">
	.st0{fill:#686868;}
	.st1{fill:#FFF24D;}
	.st2{fill:#0000FF;}
	.st3{fill:#FFFFFF;}
	.st4{fill:#00CE75;}
	.st5{fill:none;stroke:#00CE75;stroke-width:3;stroke-miterlimit:10;}
	.st6{fill:#EAB2EA;}
	.st7{fill:none;stroke:#EAB2EA;stroke-width:4;stroke-miterlimit:10;}
	.st8{fill:none;stroke:#EAB2EA;stroke-width:4;stroke-linecap:round;stroke-miterlimit:10;}
	.st9{fill:#703B2F;}
	.st10{fill:none;stroke:#FFFFFF;stroke-width:4;stroke-linecap:round;stroke-miterlimit:10;}
	.st11{fill:none;stroke:#703B2F;stroke-width:4;stroke-miterlimit:10;}
	.st12{fill:none;stroke:#703B2F;stroke-width:4;stroke-miterlimit:10;stroke-dasharray:2.9065,2.9065;}
	.st13{fill:none;stroke:#703B2F;stroke-width:4;stroke-miterlimit:10;stroke-dasharray:2.9392,2.9392;}
	.st14{fill:#E20000;}
	.st15{fill:#2C1E51;}
	.st16{fill:#F08603;}
	.st17{fill:#516633;}
	.st18{fill:#ECE5D4;}
	.st19{fill:#5A703F;}
	.st20{fill:#252727;}
	.st21{fill:none;stroke:#B5B4B4;stroke-miterlimit:10;}
	.st22{fill:#DDDDDD;}
	.st23{fill:#7F81A0;}
	.st24{fill:#752400;}
	.st25{fill:#DD8C17;}
	.st26{fill:#E05815;}
	.st27{fill:#B5B4B4;}
	.st28{fill:#9B566B;}
	.st29{fill:#EDA9BB;}
	.st30{fill:#A53F13;}
	.st31{fill:none;stroke:#231815;stroke-linecap:round;stroke-miterlimit:10;}
	.st32{fill:#72AD00;}
	.st33{fill:#F0F4FA;}
	.st34{fill:#00B6E0;}
	.st35{fill:#E20000;stroke:#844E4E;stroke-width:0.75;stroke-miterlimit:10;}
	.st36{fill:#1C1C1C;}
	.st37{fill:none;stroke:#BCBCBC;stroke-miterlimit:10;}
	.st38{fill:none;stroke:#686868;stroke-width:0.25;stroke-miterlimit:10;}
</style>
<g id="レイヤー_1">
	<polygon class="st0" points="0,74 7,72 7,69 0,69 	"/>
	<ellipse class="st1" cx="96.82" cy="61.09" rx="3.18" ry="3.98"/>
	<ellipse class="st1" cx="95" cy="37.82" rx="3" ry="3.75"/>
	<path class="st14" d="M7.04,52c0,2.33-7.1,20,0.74,21.98h83.36C96,74,99,70.03,99,67.7l-3.08-33.21c-0.91-4.11-5.48-4.86-5.48-4.86
		s-19.1-4.71-21.08-6.25s-3.06-1.5-3.06-1.5S22.22,22,21.25,22c-2.03,0-3.52,2.37-3.52,2.37L15.16,27c0,0-2.2-0.18-2.36,1.61
		L7.04,52z"/>
	<path class="st15" d="M62.72,53H19.37c-3.31-0.73-3.31-2.78-3.31-3.52l4.31-24.98c0-0.74,0.71-1.34,1.59-1.34h39.04
		c0.88,0,1.59,0.6,1.59,1.34l3.45,24.98C66.02,50.22,66.01,52.27,62.72,53z"/>
	<path class="st14" d="M58.26,17.57l8.75,6.14l0.09,1.26c0,0-4.23-3.89-8.85-6.88C58.25,18.1,57.45,17.98,58.26,17.57z"/>
	<path class="st14" d="M10.88,66.13L17,25l-5.45,1.58c0,0-1.55,1.42-2.74,4.78C8.13,33.3,1,64,1,64s-0.54,6.97,6.73,9.98
		L10.88,66.13z"/>
	<path class="st14" d="M12,63c0,6.08-0.69,11-4,11s-8-4.92-8-11s2.69-11,6-11S12,56.92,12,63z"/>
	<ellipse class="st14" cx="12" cy="33.5" rx="6" ry="7.5"/>
	<polygon class="st14" points="16.06,30.12 6,28.47 0.99,50.7 13,54 	"/>
	<polygon class="st16" points="6.93,28.62 8.82,31.36 6,34.07 7.77,37.82 4.09,41 7,46 1.98,49.49 3.57,51.41 9.81,47.48 
		6.28,41.57 10.38,38.42 8,34 11,32 8.52,28.89 	"/>
	<polygon class="st16" points="12.64,29.27 14.53,32.01 11.71,34.71 13.48,38.46 9.81,41.64 12.71,46.64 7.69,50.13 9.28,52.05 
		15.52,48.13 11.99,42.21 16.1,39.06 13.71,34.64 16.71,32.64 14.24,29.53 	"/>
	<ellipse transform="matrix(0.9781 -0.2079 0.2079 0.9781 -5.4394 9.9282)" class="st0" cx="44.51" cy="30.84" rx="4" ry="8"/>
	<ellipse transform="matrix(0.9859 -0.1671 0.1671 0.9859 -7.0803 7.6077)" class="st0" cx="41.67" cy="45.88" rx="4.52" ry="11"/>
	<path class="st0" d="M43,37.23v-6.47c0-1.53,1.49-2.77,3.32-2.77h11.36c1.83,0,3.32,1.24,3.32,2.77l-1.2,6.47
		C58.6,39,58.31,40,56.48,40H46.32C44.49,40,43,38.76,43,37.23z"/>
	<path class="st0" d="M41,54.78v-7.53c0-1.78,1.74-3.22,3.88-3.22h13.29c2.14,0,2.83,1.44,2.83,3.22l-1.05,7.53
		c-1.4,2.06-1.74,3.22-3.88,3.22H44.88C42.74,58,41,56.56,41,54.78z"/>
	<path class="st17" d="M50.24,59.07c0,0-11.06-1.09-18.63-9.77l1.98,0.08c0,0-2.8-2.42-2.98-3.95c0,0,1.95,0.41,2.7,0.5
		c0,0-2.69-3.43-2.74-4.62c0,0,2.78,1.37,4.52,1.79c0,0-4.2-2.82-2.83-3.26c0,0,5.87,1.46,6.45,2.83c0,0-0.98-3.8-0.39-3.36
		c0,0,2.63,3.39,2.45,5.66c-0.19,2.27,1.44,6.13,9.51,8.73c0,0,2.91,1.02,2.24,3.26C51.85,59.2,50.24,59.07,50.24,59.07z"/>
	<path class="st18" d="M45.33,51.57c-0.53,0.65-2.43,0.08-2.43,0.08c0.79,0.79,0.79,2,0.79,2c-1.01,0.6-2.86,0.05-2.86,0.05
		c1.12,1.43,0.8,2.48,0.8,2.48s-0.66,0.73-2.07,0.04c-1.41-0.69-3.02-1.89-3.02-1.89s-1.79-1.45-1.18-1.54s1.92,0.17,1.92,0.17
		s-1.84-2.86-0.95-3.07c0.89-0.2,2.12,0.1,2.12,0.1s-0.81-2.32-0.17-2.3c0.64,0.02,1.62,0.7,1.62,0.7s0.11-3.52,1.37-0.87
		c1.02,2.14,3.18,3.47,3.18,3.47l0.83,0.53"/>
	<g>
		<path class="st19" d="M64.38,46.3c0,0-0.51,0.33-2.02-0.06c-1.51-0.39-8.66-2.55-12.54-1.17c-3.88,1.38-1.37,4-1.37,4
			s1.64,1.55,5.1,0.15c0,0,0.69-0.11,2.74,0.05c2.04,0.16,2.02,0.26,5.44,0.26c0,0,0.93-0.07,2.05,0.15
			C63.78,49.69,65.47,48.08,64.38,46.3z"/>
		<path class="st20" d="M63.78,49.69c0,0,1.72-1.6,0.6-3.39c0,0,0.55-0.67,1.17-1.03c0.62-0.36,1.23,0.48,1.03,1.74
			c-0.2,1.26-0.42,2.06-1.17,2.69S63.78,49.69,63.78,49.69z"/>
	</g>
	<path class="st17" d="M48.97,38.6c0,0-3.73,0.12-2.78,2.4c0.95,2.28,9.69,1.14,9.69,1.14s1.78-0.25,2.98-0.72
		c0,0,0.23-1.21-0.4-1.92S50.81,38.47,48.97,38.6z"/>
	<path class="st20" d="M58.72,39.29c0,0-1.1,1.08,0.25,2.13c0,0,1.23,0.1,2.34-0.39c0,0,0.41-0.22,0.46-0.4s-0.01-0.3-0.14-0.27
		c-0.14,0.03-0.44,0.35-0.86,0.38s1.12-0.21,1.2-0.92c0,0,0.02-0.17-0.46,0.02c0,0-0.49,0.24-0.93,0.31c0,0,0.84-0.39,1.11-0.77
		c0,0,0.18-0.53-0.47-0.21c0,0-0.53,0.32-1.07,0.41c0,0,1.06-0.62,0.98-1.02c0,0-0.02-0.32-0.52,0.11s-1.23,0.44-1.23,0.44
		s0.19-0.31,0.48-0.51c0,0,0.27-0.18,0.04-0.37C59.91,38.24,59.49,38.05,58.72,39.29z"/>
	<path class="st19" d="M53.02,41.19c0,0-2.35,1.62-8.27,1.94c0,0-2.89,1.76-0.31,5.94c0,0,1.78,2.38,1.38,4.68
		c0,0-1.26,4.97,6.96,4.25c0,0,4.82,0.1,5.84-5.74c0,0,0.36-1.98-2.25-5.92C56.37,46.34,55.63,43.42,53.02,41.19z"/>
	<g>
		<path class="st22" d="M45.46,51.23l-1.06-2.12c1.43,0.71,2.59-0.46,2.59-0.46c0.63-1.61-1.48-4.62-1.48-4.62
			c-0.66-0.84-1.42-0.33-1.42-0.33c0.62-0.86,1.82-0.73,1.82-0.73l5.87,0.24l1.27-1.99c2.79,2.53,3.36,5.14,3.36,5.14
			c0.45,0.73,0.71,1.14,0.71,1.14l0.25,0.52l-0.5,2.47l-2.47-1.25L53.3,52.3C53.3,52.3,47.93,52.36,45.46,51.23z"/>
		<path class="st21" d="M51.46,43.51c0,0,1.03,1.29,2.98,5.8"/>
		<circle class="st23" cx="52.67" cy="44.32" r="0.51"/>
		<circle class="st23" cx="53.64" cy="46.12" r="0.51"/>
	</g>
	<polygon class="st3" points="53.06,41.21 51.79,43.2 53.85,44.05 53.46,41.59 	"/>
	<path class="st3" d="M51.78,43.21l-1.25,2.23l-6-2.14c0,0,0.41-0.37,1.38-0.33C46.88,43.01,51.78,43.21,51.78,43.21z"/>
	<g>
		<path class="st24" d="M44.09,43.7c0,0,0.76-0.51,1.42,0.33c0,0,2.11,3.01,1.48,4.62c0,0-1.16,1.17-2.59,0.46l1.06,2.12
			c0,0,7.08,0.37,11.66-3.74c0,0-0.25-0.41-0.71-1.14c0,0-0.57-2.61-3.36-5.14l-1.27,1.99l-5.87-0.24
			C45.91,42.97,44.71,42.84,44.09,43.7z"/>
		<path class="st21" d="M51.97,43.06c0,0,1.09,1.43,3.04,5.94"/>
		<path class="st21" d="M51.1,43.52c0,0,1.09,1.43,3.04,5.94"/>
		<circle class="st25" cx="52.64" cy="44.99" r="0.51"/>
		<circle class="st25" cx="53.46" cy="46.51" r="0.51"/>
		<circle class="st25" cx="54.27" cy="48.14" r="0.51"/>
		<path class="st26" d="M54.62,46.79c1.03-0.35,1.52-0.84,1.52-0.84l0.58,0.96L56.4,47.8l-1.21,0.01L54.62,46.79z"/>
		<polygon class="st27" points="49.38,47.13 49.54,47.36 49.2,47.59 49.03,47.37 		"/>
		<polygon class="st23" points="49.25,46.84 49.47,47.15 49.03,47.45 48.81,47.15 		"/>
		<polygon class="st23" points="50.4,48.44 49.54,47.26 49.1,47.56 50.19,49.12 50.69,49.28 50.64,48.82 		"/>
		<path class="st26" d="M49.13,48.78c1.8-0.38,2.8-0.97,2.8-0.97l0.52,1.3l-0.9,1.13l-1.95-0.08L49.13,48.78z"/>
		<path class="st28" d="M50.67,47.61c0.35-0.19,0.71-0.37,0.97,0.35l-0.43,0.19c0,0-0.15-0.51-0.38-0.37
			C50.61,47.93,50.67,47.61,50.67,47.61z"/>
		<path class="st29" d="M51.64,47.96c0,0-0.17-0.57-0.64-0.47c-0.16,0.04-0.19,0.23-0.16,0.46c0.05,0.46,0.33,1.09,0.33,1.09
			s0.22,0.8,0.08,0.96l-0.47-0.17c0,0,0.01-0.54-0.2-1.03c-0.22-0.48-0.26-1.01,0.09-1.2C51.02,47.42,51.38,47.24,51.64,47.96z"/>
		<polygon class="st3" points="53.07,41.18 51.8,43.18 53.85,44.03 53.47,41.56 		"/>
		<path class="st3" d="M51.8,43.18l-1.25,2.23l-6-2.14c0,0,0.41-0.37,1.38-0.33C46.9,42.98,51.8,43.18,51.8,43.18z"/>
		<g>
			<path class="st26" d="M52.07,43.54l0.59-1.11c0,0,0.23-0.29,0.48,0c0,0,0.36,0.51,0.38,1.11c0.03,0.6-1.36,0.28-1.36,0.28
				S51.96,43.73,52.07,43.54z"/>
			<path class="st30" d="M52.12,43.49l0.58-0.97c0,0,0.16-0.27,0.38-0.03S52.12,43.49,52.12,43.49z"/>
			<path class="st26" d="M51.84,43.5l-1.43-0.19c0,0-0.43,0.02-0.32,0.44c0,0,0.23,0.67,0.78,1.1s1.16-1.08,1.16-1.08
				S52.09,43.53,51.84,43.5z"/>
			<path class="st30" d="M51.77,43.54l-1.32-0.14c0,0-0.41-0.07-0.29,0.29C50.27,44.01,51.77,43.54,51.77,43.54z"/>
			<path class="st25" d="M52.56,43.83c0,0,0.01-0.38-0.3-0.61c0,0-0.03-0.04-0.14,0.01c-0.11,0.05-0.45,0.2-0.45,0.2
				s-0.07,0.06-0.05,0.14c0.03,0.09,0.15,0.22,0.22,0.56c0,0,0,0.05,0.11,0.02s0.55-0.24,0.55-0.24S52.56,43.88,52.56,43.83z"/>
			<circle class="st25" cx="53.12" cy="43.01" r="0.12"/>
			<circle class="st25" cx="53.37" cy="43.61" r="0.12"/>
			<circle class="st25" cx="52.79" cy="43.68" r="0.12"/>
			<circle class="st25" cx="53.06" cy="43.37" r="0.12"/>
			<circle class="st25" cx="52.68" cy="43.32" r="0.12"/>
			<circle class="st25" cx="50.35" cy="44" r="0.12"/>
			<circle class="st25" cx="50.66" cy="44.28" r="0.12"/>
			<circle class="st25" cx="51.02" cy="44.58" r="0.12"/>
			<path class="st25" d="M51.71,44.37c-0.03-0.06-0.11-0.08-0.17-0.05c-0.06,0.03-0.08,0.11-0.05,0.17c0,0,0.03,0.06,0.09,0.07
				C51.58,44.56,51.68,44.43,51.71,44.37L51.71,44.37z"/>
			<circle class="st25" cx="51.47" cy="43.87" r="0.12"/>
			<circle class="st25" cx="51.26" cy="44.21" r="0.12"/>
			<circle class="st25" cx="50.9" cy="43.99" r="0.12"/>
		</g>
	</g>
	<path class="st17" d="M54.81,28.03l-0.05-2.21c0,0-0.55-1.92-0.76-2.82c0,0-0.4-1.17-1-1s-2.06,2.71-2.06,2.71
		s-4.65-1.73-10.72,1.97c0,0-3.21-0.2-5.01,0.26c0,0-1.19,0.1-0.64,2c0,0,1.06,1.45,2.04,2.55c0,0,0.61,0.42,0.2,1.37
		c0,0-1.94,1.49-1.81,2.13l-2,1c0,0,1.78,2.61,3.1,3.66L33,39c0,0,4.22,3.26,5.94,3.05L37,43c0,0,4.04,0.88,5.53,0.15
		c0,0,7.97,1.24,11.71-1.1c0,0,3.47-2.07,4.59-5c0,0,0.7-2.09-1.34-2.22c0,0-0.33,0.13-0.43-0.52c-0.1-0.65-0.32-2.99-2.26-5.82
		L54.81,28.03z"/>
	<path class="st18" d="M57.49,34.84c2,0.09,1.34,2.22,1.34,2.22c-1.12,2.93-4.59,5-4.59,5c-3.74,2.34-8.3,0.72-8.3,0.72
		c-5.49-0.05-6.9-3.51-6.9-3.51c-0.83-1.96,1.99-2.3,1.99-2.3c6.21,0.45,7.59-2.43,7.59-2.43l1.82,1.28l0.89-0.28l-0.1-0.65
		l0.02-0.37c0,0,3.36,2.17,5.82-0.18C57.06,34.31,57.11,34.82,57.49,34.84z"/>
	<path class="st18" d="M39.85,28.87l-3.68-0.67c0,0-1.64-0.16-1.02,0.76c0.61,0.92,1.2,2.04,2.22,2.46c0,0,0.48,0.01,0.8-0.68
		c0,0-1.22-0.55,0.37-0.7c0,0,0.77-0.07,0.1-0.54c0,0-0.74-0.58,1.05-0.16C39.68,29.34,40.21,29.3,39.85,28.87z"/>
	<path class="st18" d="M55.44,30.43c0,0-0.18,0.88-1.33,0.47c-1.15-0.41-2.89-0.62-3.41,1.67l0,1.09c0,0-1.42-2.01-0.16-3.71
		c0,0,1.26-1.78,3.81-0.29c0,0,0.55,0.31,0.95-0.18C55.3,29.48,55.68,30.03,55.44,30.43z"/>
	<path class="st18" d="M48.74,33.57c0,0-0.67-2.72-3.5-2.07c0,0-1.55,0.27-3.26,1.76c0,0-1.14,0.6-2.18-0.38
		c0,0-0.78-0.54,0.22-0.63c0,0,0.4,0.07,1.09-0.54c0.69-0.61,2.77-2.62,5.45-1.81C46.57,29.91,48.68,30.29,48.74,33.57z"/>
	<path class="st20" d="M48.66,33.35c0,0,0.8,1.96-2.17,3.22s-5.36,0.58-5.36,0.58s-2.7-2.5,2.28-5.1
		C43.42,32.05,47.43,29.46,48.66,33.35z"/>
	<path class="st20" d="M56.82,32.95c0,0-1.54-2.29-4.09-2.31c0,0-2.13,0.03-2.03,2.64c0,0-0.05,1.32,1.7,1.88s3.71,0.11,4.49-0.66
		C56.89,34.5,57.24,34.34,56.82,32.95z"/>
	<path class="st26" d="M54.7,39.34c0,0-3,2.47-5.23,0.77c-2.24-1.7-0.34-1.51-0.34-1.51S51.46,40.99,54.7,39.34z"/>
	<path class="st18" d="M49.14,36.34c0,0,4.68-2.36,6.74-0.33c0,0,0.95,1.45-0.79,3.11c0,0-3.94,2.57-5.95-0.52
		C49.13,38.6,48.35,37.16,49.14,36.34z"/>
	<path class="st20" d="M52.2,37.18c0.08,0.52,0.83,1.09,1.64,0.97c0.81-0.12,1.36-0.89,1.29-1.4s-0.79-0.84-1.6-0.72
		C52.71,36.15,52.12,36.67,52.2,37.18z"/>
	<circle class="st3" cx="45.38" cy="34.23" r="1.96"/>
	
		<ellipse transform="matrix(0.9893 -0.1459 0.1459 0.9893 -4.5193 7.0861)" class="st32" cx="46.03" cy="34.34" rx="1.32" ry="1.42"/>
	<circle class="st33" cx="53.48" cy="32.96" r="1.62"/>
	
		<ellipse transform="matrix(0.9893 -0.1459 0.1459 0.9893 -4.2439 8.2305)" class="st32" cx="53.97" cy="33.04" rx="1.14" ry="1.26"/>
	<g>
		<path class="st19" d="M65.38,52.3c0,0-0.51,0.33-2.02-0.06c-1.51-0.39-8.66-2.55-12.54-1.17c-3.88,1.38-1.37,4-1.37,4
			s1.64,1.55,5.1,0.15c0,0,0.69-0.11,2.74,0.05c2.04,0.16,2.02,0.26,5.44,0.26c0,0,0.93-0.07,2.05,0.15
			C64.78,55.69,66.47,54.08,65.38,52.3z"/>
		<path class="st20" d="M64.78,55.69c0,0,1.72-1.6,0.6-3.39c0,0,0.55-0.67,1.17-1.03c0.62-0.36,1.23,0.48,1.03,1.74
			c-0.2,1.26-0.42,2.06-1.17,2.69S64.78,55.69,64.78,55.69z"/>
	</g>
	<rect x="25.89" y="53" class="st14" width="36.82" height="8.89"/>
	<path class="st17" d="M48.22,42.82c0,0-5.54-0.6-4.62,2.98c0.92,3.58,14.11,3.71,14.11,3.71s2.69,0.01,4.57-0.44
		c0,0,0.59-1.74-0.19-2.93S50.96,43.01,48.22,42.82z"/>
	<path class="st20" d="M62.5,45.87c0,0-1.86,1.37-0.07,3.2c0,0,1.81,0.4,3.54-0.09c0,0,0.65-0.24,0.76-0.49
		c0.11-0.25,0.05-0.45-0.16-0.42s-0.72,0.43-1.35,0.39c-0.62-0.04,1.7-0.08,1.97-1.11c0,0,0.06-0.25-0.69-0.06
		c0,0-0.78,0.25-1.44,0.27c0,0,1.33-0.4,1.8-0.91c0,0,0.37-0.75-0.65-0.41c0,0-0.85,0.36-1.67,0.39c0,0,1.7-0.69,1.66-1.3
		c0,0,0.04-0.48-0.79,0.06s-1.91,0.39-1.91,0.39s0.34-0.42,0.81-0.65c0,0,0.44-0.2,0.14-0.54C64.48,44.56,63.9,44.2,62.5,45.87z"/>
	<path class="st34" d="M59.34,39.43c0,0,6.34,9.53,7.67,15.84c0,0,1.91,0,1.91-2.87l-1.91-27.73c0,0-5.74-4.78-8.75-7.1L59.34,39.43
		z"/>
	<path class="st14" d="M66.02,56.26c0,0,2.58,1.1,3.7-1.38S59.3,38.54,59.3,38.54s-1.19-0.47-1.04,0.96
		C58.41,40.93,65.03,48.64,66.02,56.26z"/>
	<path class="st14" d="M57.45,17.98l0.81,21.52l1.08-0.08l-1.08-21.77C58.26,17.65,57.45,17.02,57.45,17.98z"/>
	<path class="st35" d="M68.24,56.21l-5.05,3.51c-0.65,0.45-1.53,0.29-1.98-0.36l-1.8-2.59c-0.45-0.65-0.29-1.53,0.36-1.98l5.62-2.69
		c0.65-0.45,1.53-0.29,1.98,0.36l1.23,1.76C69.04,54.87,68.88,55.76,68.24,56.21z"/>
	<path class="st18" d="M40,38c0,0,4.53-3.34,8.76-3.17L49,37L40,38z"/>
	<path class="st18" d="M56.83,34.82c0,0-3.61-2.18-5.22,0l0.25,0.81C51.86,35.64,56.66,35.65,56.83,34.82z"/>
	<path class="st15" d="M8.75,74.14c0-5.54,6.32-10.03,14.13-10.03S37,68.6,37,74.14"/>
	<path class="st15" d="M56.75,74.14c0-5.54,6.32-10.03,14.13-10.03S85,68.6,85,74.14"/>
	<ellipse class="st36" cx="22.87" cy="74.36" rx="12.49" ry="8.86"/>
	<ellipse class="st0" cx="22.87" cy="74.36" rx="6.46" ry="4.58"/>
	<ellipse class="st37" cx="22.87" cy="74.36" rx="4.63" ry="3.28"/>
	<ellipse class="st38" cx="22.87" cy="74.36" rx="7.94" ry="5.64"/>
	<ellipse class="st36" cx="70.75" cy="74.36" rx="12.49" ry="8.86"/>
	<ellipse class="st0" cx="70.75" cy="74.36" rx="6.46" ry="4.58"/>
	<ellipse class="st37" cx="70.75" cy="74.36" rx="4.75" ry="3.37"/>
	<ellipse class="st38" cx="70.75" cy="74.36" rx="7.75" ry="5.5"/>
</g>
<g id="レイヤー_2">
</g>
</svg>
