<?xml version="1.0" encoding="utf-8"?>
<!-- Generator: Adobe Illustrator 28.0.0, SVG Export Plug-In . SVG Version: 6.00 Build 0)  -->
<svg version="1.1" xmlns="http://www.w3.org/2000/svg" xmlns:xlink="http://www.w3.org/1999/xlink" x="0px" y="0px"
	 viewBox="0 0 100 100" style="enable-background:new 0 0 100 100;" xml:space="preserve">
<style type="text/css">
	.st0{fill:#686868;}
	.st1{fill:#FFF24D;}
	.st2{fill:#0000FF;}
	.st3{fill:#FFFFFF;}
	.st4{fill:#00CE75;}
	.st5{fill:none;stroke:#00CE75;stroke-width:3;stroke-miterlimit:10;}
	.st6{fill:#EAB2EA;}
	.st7{fill:none;stroke:#EAB2EA;stroke-width:4;stroke-miterlimit:10;}
	.st8{fill:none;stroke:#EAB2EA;stroke-width:4;stroke-linecap:round;stroke-miterlimit:10;}
	.st9{fill:#703B2F;}
	.st10{fill:none;stroke:#FFFFFF;stroke-width:4;stroke-linecap:round;stroke-miterlimit:10;}
	.st11{fill:none;stroke:#703B2F;stroke-width:4;stroke-miterlimit:10;}
	.st12{fill:none;stroke:#703B2F;stroke-width:4;stroke-miterlimit:10;stroke-dasharray:2.9065,2.9065;}
	.st13{fill:none;stroke:#703B2F;stroke-width:4;stroke-miterlimit:10;stroke-dasharray:2.9392,2.9392;}
	.st14{fill:#E20000;}
	.st15{fill:#2C1E51;}
	.st16{fill:#F08603;}
	.st17{fill:#516633;}
	.st18{fill:#ECE5D4;}
	.st19{fill:#5A703F;}
	.st20{fill:#252727;}
	.st21{fill:none;stroke:#B5B4B4;stroke-miterlimit:10;}
	.st22{fill:#DDDDDD;}
	.st23{fill:#7F81A0;}
	.st24{fill:#752400;}
	.st25{fill:#DD8C17;}
	.st26{fill:#E05815;}
	.st27{fill:#B5B4B4;}
	.st28{fill:#9B566B;}
	.st29{fill:#EDA9BB;}
	.st30{fill:#A53F13;}
	.st31{fill:none;stroke:#231815;stroke-linecap:round;stroke-miterlimit:10;}
	.st32{fill:#72AD00;}
	.st33{fill:#F0F4FA;}
	.st34{fill:#00B6E0;}
	.st35{fill:#E20000;stroke:#844E4E;stroke-width:0.75;stroke-miterlimit:10;}
	.st36{fill:#1C1C1C;}
	.st37{fill:none;stroke:#BCBCBC;stroke-miterlimit:10;}
	.st38{fill:none;stroke:#686868;stroke-width:0.25;stroke-miterlimit:10;}
</style>
<g id="レイヤー_1">
	<g>
		<path class="st4" d="M0,50L0,50C0,22.39,22.39,0,50,0l0,0c27.61,0,50,22.39,50,50v0c0,27.61-22.39,50-50,50h0
			C22.39,100,0,77.61,0,50z"/>
		<g>
			<circle class="st3" cx="49.74" cy="27.04" r="13.27"/>
			<circle class="st3" cx="33.93" cy="34.18" r="13.27"/>
			<circle class="st3" cx="26.28" cy="49.49" r="13.27"/>
			<circle class="st3" cx="33.93" cy="65.82" r="13.27"/>
			<circle class="st3" cx="49.74" cy="71.94" r="13.27"/>
			<circle class="st3" cx="66.58" cy="65.82" r="13.27"/>
			<circle class="st3" cx="74.23" cy="49.49" r="13.27"/>
			<circle class="st3" cx="66.58" cy="34.18" r="13.27"/>
		</g>
		<circle class="st4" cx="50.26" cy="49.49" r="13.27"/>
		<polyline class="st5" points="63.52,17.8 50.26,49.49 35.15,17.8 		"/>
		<polyline class="st5" points="35.93,83.42 49.2,51.73 64.31,83.42 		"/>
		<polyline class="st5" points="83.31,63.39 51.62,50.13 83.31,35.02 		"/>
		<polyline class="st5" points="16.95,63.39 48.64,50.13 16.95,35.02 		"/>
	</g>
</g>
<g id="レイヤー_2">
</g>
</svg>
