<?xml version="1.0" encoding="utf-8"?>
<!-- Generator: Adobe Illustrator 28.0.0, SVG Export Plug-In . SVG Version: 6.00 Build 0)  -->
<svg version="1.1" id="レイヤー_1" xmlns="http://www.w3.org/2000/svg" xmlns:xlink="http://www.w3.org/1999/xlink" x="0px"
	 y="0px" viewBox="0 0 50 50" style="enable-background:new 0 0 50 50;" xml:space="preserve">
<style type="text/css">
	.st0{fill:#FFFFFF;}
	.st1{fill:none;stroke:#516633;stroke-width:8;stroke-miterlimit:10;}
</style>
<g>
	<path class="st0" d="M8.29,25.33c0-9.14,7.54-16.56,16.83-16.56s16.83,7.41,16.83,16.56"/>
	<g>
		<ellipse class="st0" cx="25.13" cy="27.74" rx="25" ry="6.55"/>
	</g>
	<path class="st1" d="M8.29,23.67c0,0,17.61,3.81,33.67-0.71"/>
</g>
<path class="st0" d="M95.55,44.27h15.95V24.68l2.47,0.95l6.19-12.02l-8.65-4.86c0,0-1.65-0.87-6.58-1.74h-0.39
	c0,0-2.74,7.51-8.99,8.72h-0.78C88.51,14.51,85.77,7,85.77,7h-0.39c-4.94,0.87-6.58,1.74-6.58,1.74l-8.65,4.86l6.19,12.02l2.47-0.95
	v19.59h15.95H95.55z"/>
</svg>
