<?xml version="1.0" encoding="utf-8"?>
<!-- Generator: Adobe Illustrator 28.0.0, SVG Export Plug-In . SVG Version: 6.00 Build 0)  -->
<svg version="1.1" xmlns="http://www.w3.org/2000/svg" xmlns:xlink="http://www.w3.org/1999/xlink" x="0px" y="0px"
	 viewBox="0 0 100 100" style="enable-background:new 0 0 100 100;" xml:space="preserve">
<style type="text/css">
	.st0{fill:#0000FF;}
	.st1{fill:#FFFFFF;}
	.st2{fill:#00CE75;}
	.st3{fill:none;stroke:#00CE75;stroke-width:3;stroke-miterlimit:10;}
	.st4{fill:#EAB2EA;}
	.st5{fill:none;stroke:#EAB2EA;stroke-width:4;stroke-miterlimit:10;}
	.st6{fill:none;stroke:#EAB2EA;stroke-width:4;stroke-linecap:round;stroke-miterlimit:10;}
	.st7{fill:#703B2F;}
	.st8{fill:none;stroke:#FFFFFF;stroke-width:4;stroke-linecap:round;stroke-miterlimit:10;}
	.st9{fill:none;stroke:#703B2F;stroke-width:4;stroke-miterlimit:10;}
	.st10{fill:none;stroke:#703B2F;stroke-width:4;stroke-miterlimit:10;stroke-dasharray:2.9065,2.9065;}
	.st11{fill:none;stroke:#703B2F;stroke-width:4;stroke-miterlimit:10;stroke-dasharray:2.9392,2.9392;}
	.st12{fill:#686868;}
	.st13{fill:#FFF24D;}
	.st14{fill:#E20000;}
	.st15{fill:#2C1E51;}
	.st16{fill:#F08603;}
	.st17{fill:#516633;}
	.st18{fill:#ECE5D4;}
	.st19{fill:#5A703F;}
	.st20{fill:#252727;}
	.st21{fill:none;stroke:#B5B4B4;stroke-miterlimit:10;}
	.st22{fill:#DDDDDD;}
	.st23{fill:#7F81A0;}
	.st24{fill:#752400;}
	.st25{fill:#DD8C17;}
	.st26{fill:#E05815;}
	.st27{fill:#B5B4B4;}
	.st28{fill:#9B566B;}
	.st29{fill:#EDA9BB;}
	.st30{fill:#A53F13;}
	.st31{fill:none;stroke:#231815;stroke-linecap:round;stroke-miterlimit:10;}
	.st32{fill:#72AD00;}
	.st33{fill:#F0F4FA;}
	.st34{fill:#00B6E0;}
	.st35{fill:#E20000;stroke:#844E4E;stroke-width:0.75;stroke-miterlimit:10;}
	.st36{fill:#1C1C1C;}
	.st37{fill:none;stroke:#BCBCBC;stroke-miterlimit:10;}
	.st38{fill:none;stroke:#686868;stroke-width:0.25;stroke-miterlimit:10;}
	.st39{fill:#707070;}
	.st40{fill:#9B9B9B;}
	.st41{fill:#748989;}
</style>
<g id="レイヤー_1">
	<g>
		<path class="st0" d="M0-70L0-70c0-27.61,22.39-50,50-50h0c27.61,0,50,22.39,50,50v0c0,27.61-22.39,50-50,50h0
			C22.39-20,0-42.39,0-70z"/>
		<rect x="21.56" y="-98.29" class="st1" width="58.16" height="44.12"/>
		<rect x="27.1" y="-94.09" class="st0" width="47.08" height="35.72"/>
		<rect x="45.54" y="-55.71" class="st1" width="10.2" height="10.2"/>
		<rect x="38.9" y="-45.51" class="st1" width="23.47" height="4.08"/>
	</g>
	<g>
		<path class="st2" d="M-120-70L-120-70c0-27.61,22.39-50,50-50h0c27.61,0,50,22.39,50,50v0c0,27.61-22.39,50-50,50h0
			C-97.61-20-120-42.39-120-70z"/>
		<g>
			<circle class="st1" cx="-70.26" cy="-92.96" r="13.27"/>
			<circle class="st1" cx="-86.07" cy="-85.82" r="13.27"/>
			<circle class="st1" cx="-93.72" cy="-70.51" r="13.27"/>
			<circle class="st1" cx="-86.07" cy="-54.18" r="13.27"/>
			<circle class="st1" cx="-70.26" cy="-48.06" r="13.27"/>
			<circle class="st1" cx="-53.42" cy="-54.18" r="13.27"/>
			<circle class="st1" cx="-45.77" cy="-70.51" r="13.27"/>
			<circle class="st1" cx="-53.42" cy="-85.82" r="13.27"/>
		</g>
		<circle class="st2" cx="-69.74" cy="-70.51" r="13.27"/>
		<polyline class="st3" points="-56.48,-102.2 -69.74,-70.51 -84.85,-102.2 		"/>
		<polyline class="st3" points="-84.07,-36.58 -70.8,-68.27 -55.69,-36.58 		"/>
		<polyline class="st3" points="-36.69,-56.61 -68.38,-69.87 -36.69,-84.98 		"/>
		<polyline class="st3" points="-103.05,-56.61 -71.36,-69.87 -103.05,-84.98 		"/>
	</g>
	<g>
		<path class="st4" d="M-120-190L-120-190c0-27.61,22.39-50,50-50h0c27.61,0,50,22.39,50,50v0c0,27.61-22.39,50-50,50h0
			C-97.61-140-120-162.39-120-190z"/>
		<ellipse class="st1" cx="-70" cy="-201.73" rx="35.71" ry="26.02"/>
		<polygon class="st1" points="-44.35,-160.41 -93.99,-160.41 -100.61,-206.33 -39.39,-206.33 		"/>
		<path class="st5" d="M-107.04-204.04c0,0,6.96,0.54,13.23-2.6c0,0,6.54-4.17,12.68,0c0,0,12.89,11.15,25.19,0.36
			c0,0,6.77-5.31,14.18-0.05c0,0,3.72,3.3,8.19,3.26"/>
		
			<rect x="-90.71" y="-220.96" transform="matrix(0.9401 -0.3409 0.3409 0.9401 68.894 -42.7334)" class="st4" width="7.14" height="7.14"/>
		
			<rect x="-72.25" y="-227.81" transform="matrix(0.3615 -0.9324 0.9324 0.3615 165.2233 -207.2002)" class="st4" width="7.14" height="7.14"/>
		
			<rect x="-55.92" y="-221.69" transform="matrix(0.9401 -0.3409 0.3409 0.9401 71.2264 -30.9154)" class="st4" width="7.14" height="7.14"/>
		<line class="st5" x1="-89.69" y1="-186.27" x2="-87.65" y2="-161.78"/>
		<line class="st5" x1="-79.49" y1="-184.22" x2="-77.45" y2="-161.78"/>
		<line class="st5" x1="-68.68" y1="-184.22" x2="-68.68" y2="-161.78"/>
		<line class="st5" x1="-48.57" y1="-186.27" x2="-50.66" y2="-161.78"/>
		<line class="st5" x1="-57.76" y1="-184.22" x2="-59.84" y2="-161.78"/>
		<rect x="-93.77" y="-162.8" class="st1" width="47.96" height="2.04"/>
		<path class="st6" d="M-96.12-188.98c0,0,25.36,13.61,52.63,0"/>
		
			<rect x="-68.44" y="-210.93" transform="matrix(0.3615 -0.9324 0.9324 0.3615 152.164 -194.2076)" class="st4" width="5.44" height="5.44"/>
	</g>
	<path class="st7" d="M0.36-189.72L0.36-189.72c0-27.61,22.39-50,50-50h0c27.61,0,50,22.39,50,50v0c0,27.61-22.39,50-50,50h0
		C22.75-139.72,0.36-162.11,0.36-189.72z"/>
	<path class="st8" d="M23.29-155.45c0,0,19.39-28.63,54.16-30.18c0,0-3.14-46.35-32.73-37.17c0,0-10.2,3.06-10.2,11.22
		s8.16,23.47,40.82,32.65"/>
	<g>
		<g>
			<path class="st9" d="M23.29-155.45c0,0,0.3-0.44,0.88-1.21"/>
			<path class="st10" d="M25.98-158.92c6.2-7.39,22.94-24.2,48.5-26.5"/>
			<path class="st9" d="M75.95-185.54c0.5-0.03,1-0.06,1.5-0.08c0,0-0.04-0.54-0.14-1.49"/>
			<path class="st11" d="M76.93-190.02c-1.67-11.35-8.3-40.19-32.22-32.77c0,0-10.2,3.06-10.2,11.22c0,7.92,7.68,22.56,37.96,31.82"
				/>
			<path class="st9" d="M73.89-179.33c0.48,0.14,0.96,0.28,1.44,0.41"/>
		</g>
	</g>
	<g>
		<polygon class="st12" points="-120,74 -113,72 -113,69 -120,69 		"/>
		<ellipse class="st13" cx="-23.18" cy="61.09" rx="3.18" ry="3.98"/>
		<ellipse class="st13" cx="-25" cy="37.82" rx="3" ry="3.75"/>
		<path class="st14" d="M-112.96,52c0,2.33-7.1,20,0.74,21.98h83.36C-24,74-21,70.03-21,67.7l-3.08-33.21
			c-0.91-4.11-5.48-4.86-5.48-4.86s-19.1-4.71-21.08-6.25c-1.98-1.55-3.06-1.5-3.06-1.5S-97.78,22-98.75,22
			c-2.03,0-3.52,2.37-3.52,2.37l-2.57,2.63c0,0-2.2-0.18-2.36,1.61L-112.96,52z"/>
		<path class="st15" d="M-57.28,53h-43.35c-3.31-0.73-3.31-2.78-3.31-3.52l4.31-24.98c0-0.74,0.71-1.34,1.59-1.34h39.04
			c0.88,0,1.59,0.6,1.59,1.34l3.45,24.98C-53.98,50.22-53.99,52.27-57.28,53z"/>
		<path class="st14" d="M-61.74,17.57l8.75,6.14l0.09,1.26c0,0-4.23-3.89-8.85-6.88C-61.75,18.1-62.55,17.98-61.74,17.57z"/>
		<path class="st14" d="M-109.12,66.13L-103,25l-5.45,1.58c0,0-1.55,1.42-2.74,4.78C-111.87,33.3-119,64-119,64
			s-0.54,6.97,6.73,9.98L-109.12,66.13z"/>
		<path class="st14" d="M-108,63c0,6.08-0.69,11-4,11s-8-4.92-8-11s2.69-11,6-11S-108,56.92-108,63z"/>
		<ellipse class="st14" cx="-108" cy="33.5" rx="6" ry="7.5"/>
		<polygon class="st14" points="-103.94,30.12 -114,28.47 -119.01,50.7 -107,54 		"/>
		<polygon class="st16" points="-113.07,28.62 -111.18,31.36 -114,34.07 -112.23,37.82 -115.91,41 -113,46 -118.02,49.49 
			-116.43,51.41 -110.19,47.48 -113.72,41.57 -109.62,38.42 -112,34 -109,32 -111.48,28.89 		"/>
		<polygon class="st16" points="-107.36,29.27 -105.47,32.01 -108.29,34.71 -106.52,38.46 -110.19,41.64 -107.29,46.64 
			-112.31,50.13 -110.72,52.05 -104.48,48.13 -108.01,42.21 -103.9,39.06 -106.29,34.64 -103.29,32.64 -105.76,29.53 		"/>
		<ellipse transform="matrix(0.9781 -0.2079 0.2079 0.9781 -8.0615 -15.0205)" class="st12" cx="-75.49" cy="30.84" rx="4" ry="8"/>
		
			<ellipse transform="matrix(0.9859 -0.1671 0.1671 0.9859 -8.7677 -12.4453)" class="st12" cx="-78.33" cy="45.88" rx="4.52" ry="11"/>
		<path class="st12" d="M-77,37.23v-6.47c0-1.53,1.49-2.77,3.32-2.77h11.36c1.83,0,3.32,1.24,3.32,2.77l-1.2,6.47
			C-61.4,39-61.69,40-63.52,40h-10.16C-75.51,40-77,38.76-77,37.23z"/>
		<path class="st12" d="M-79,54.78v-7.53c0-1.78,1.74-3.22,3.88-3.22h13.29c2.14,0,2.83,1.44,2.83,3.22l-1.05,7.53
			c-1.4,2.06-1.74,3.22-3.88,3.22h-11.18C-77.26,58-79,56.56-79,54.78z"/>
		<path class="st17" d="M-69.76,59.07c0,0-11.06-1.09-18.63-9.77l1.98,0.08c0,0-2.8-2.42-2.98-3.95c0,0,1.95,0.41,2.7,0.5
			c0,0-2.69-3.43-2.74-4.62c0,0,2.78,1.37,4.52,1.79c0,0-4.2-2.82-2.83-3.26c0,0,5.87,1.46,6.45,2.83c0,0-0.98-3.8-0.39-3.36
			c0,0,2.63,3.39,2.45,5.66c-0.19,2.27,1.44,6.13,9.51,8.73c0,0,2.91,1.02,2.24,3.26S-69.76,59.07-69.76,59.07z"/>
		<path class="st18" d="M-74.67,51.57c-0.53,0.65-2.43,0.08-2.43,0.08c0.79,0.79,0.79,2,0.79,2c-1.01,0.6-2.86,0.05-2.86,0.05
			c1.12,1.43,0.8,2.48,0.8,2.48s-0.66,0.73-2.07,0.04c-1.41-0.69-3.02-1.89-3.02-1.89s-1.79-1.45-1.18-1.54s1.92,0.17,1.92,0.17
			s-1.84-2.86-0.95-3.07c0.89-0.2,2.12,0.1,2.12,0.1s-0.81-2.32-0.17-2.3c0.64,0.02,1.62,0.7,1.62,0.7s0.11-3.52,1.37-0.87
			c1.02,2.14,3.18,3.47,3.18,3.47l0.83,0.53"/>
		<g>
			<path class="st19" d="M-55.62,46.3c0,0-0.51,0.33-2.02-0.06c-1.51-0.39-8.66-2.55-12.54-1.17c-3.88,1.38-1.37,4-1.37,4
				s1.64,1.55,5.1,0.15c0,0,0.69-0.11,2.74,0.05c2.04,0.16,2.02,0.26,5.44,0.26c0,0,0.93-0.07,2.05,0.15
				C-56.22,49.69-54.53,48.08-55.62,46.3z"/>
			<path class="st20" d="M-56.22,49.69c0,0,1.72-1.6,0.6-3.39c0,0,0.55-0.67,1.17-1.03c0.62-0.36,1.23,0.48,1.03,1.74
				c-0.2,1.26-0.42,2.06-1.17,2.69S-56.22,49.69-56.22,49.69z"/>
		</g>
		<path class="st17" d="M-71.03,38.6c0,0-3.73,0.12-2.78,2.4c0.95,2.28,9.69,1.14,9.69,1.14s1.78-0.25,2.98-0.72
			c0,0,0.23-1.21-0.4-1.92S-69.19,38.47-71.03,38.6z"/>
		<path class="st20" d="M-61.28,39.29c0,0-1.1,1.08,0.25,2.13c0,0,1.23,0.1,2.34-0.39c0,0,0.41-0.22,0.46-0.4s-0.01-0.3-0.14-0.27
			c-0.14,0.03-0.44,0.35-0.86,0.38s1.12-0.21,1.2-0.92c0,0,0.02-0.17-0.46,0.02c0,0-0.49,0.24-0.93,0.31c0,0,0.84-0.39,1.11-0.77
			c0,0,0.18-0.53-0.47-0.21c0,0-0.53,0.32-1.07,0.41c0,0,1.06-0.62,0.98-1.02c0,0-0.02-0.32-0.52,0.11s-1.23,0.44-1.23,0.44
			s0.19-0.31,0.48-0.51c0,0,0.27-0.18,0.04-0.37C-60.09,38.24-60.51,38.05-61.28,39.29z"/>
		<path class="st19" d="M-66.98,41.19c0,0-2.35,1.62-8.27,1.94c0,0-2.89,1.76-0.31,5.94c0,0,1.78,2.38,1.38,4.68
			c0,0-1.26,4.97,6.96,4.25c0,0,4.82,0.1,5.84-5.74c0,0,0.36-1.98-2.25-5.92C-63.63,46.34-64.37,43.42-66.98,41.19z"/>
		<path class="st21" d="M-67.68,43.05"/>
		<g>
			<path class="st22" d="M-74.54,51.23l-1.06-2.12c1.43,0.71,2.59-0.46,2.59-0.46c0.63-1.61-1.48-4.62-1.48-4.62
				c-0.66-0.84-1.42-0.33-1.42-0.33c0.62-0.86,1.82-0.73,1.82-0.73l5.87,0.24l1.27-1.99c2.79,2.53,3.36,5.14,3.36,5.14
				c0.45,0.73,0.71,1.14,0.71,1.14l0.25,0.52l-0.5,2.47l-2.47-1.25l-1.11,3.06C-66.7,52.3-72.07,52.36-74.54,51.23z"/>
			<path class="st21" d="M-68.54,43.51c0,0,1.03,1.29,2.98,5.8"/>
			<circle class="st23" cx="-67.33" cy="44.32" r="0.51"/>
			<circle class="st23" cx="-66.36" cy="46.12" r="0.51"/>
		</g>
		<polygon class="st1" points="-66.94,41.21 -68.21,43.2 -66.15,44.05 -66.54,41.59 		"/>
		<path class="st1" d="M-68.22,43.21l-1.25,2.23l-6-2.14c0,0,0.41-0.37,1.38-0.33C-73.12,43.01-68.22,43.21-68.22,43.21z"/>
		<g>
			<path class="st24" d="M-75.91,43.7c0,0,0.76-0.51,1.42,0.33c0,0,2.11,3.01,1.48,4.62c0,0-1.16,1.17-2.59,0.46l1.06,2.12
				c0,0,7.08,0.37,11.66-3.74c0,0-0.25-0.41-0.71-1.14c0,0-0.57-2.61-3.36-5.14l-1.27,1.99l-5.87-0.24
				C-74.09,42.97-75.29,42.84-75.91,43.7z"/>
			<path class="st21" d="M-68.03,43.06c0,0,1.09,1.43,3.04,5.94"/>
			<path class="st21" d="M-68.9,43.52c0,0,1.09,1.43,3.04,5.94"/>
			<circle class="st25" cx="-67.36" cy="44.99" r="0.51"/>
			<circle class="st25" cx="-66.54" cy="46.51" r="0.51"/>
			<circle class="st25" cx="-65.73" cy="48.14" r="0.51"/>
			<path class="st26" d="M-65.38,46.79c1.03-0.35,1.52-0.84,1.52-0.84l0.58,0.96l-0.32,0.89l-1.21,0.01L-65.38,46.79z"/>
			<polygon class="st27" points="-70.62,47.13 -70.46,47.36 -70.8,47.59 -70.97,47.37 			"/>
			<polygon class="st23" points="-70.75,46.84 -70.53,47.15 -70.97,47.45 -71.19,47.15 			"/>
			<polygon class="st23" points="-69.6,48.44 -70.46,47.26 -70.9,47.56 -69.81,49.12 -69.31,49.28 -69.36,48.82 			"/>
			<path class="st26" d="M-70.87,48.78c1.8-0.38,2.8-0.97,2.8-0.97l0.52,1.3l-0.9,1.13l-1.95-0.08L-70.87,48.78z"/>
			<path class="st28" d="M-69.33,47.61c0.35-0.19,0.71-0.37,0.97,0.35l-0.43,0.19c0,0-0.15-0.51-0.38-0.37
				C-69.39,47.93-69.33,47.61-69.33,47.61z"/>
			<path class="st29" d="M-68.36,47.96c0,0-0.17-0.57-0.64-0.47c-0.16,0.04-0.19,0.23-0.16,0.46c0.05,0.46,0.33,1.09,0.33,1.09
				s0.22,0.8,0.08,0.96l-0.47-0.17c0,0,0.01-0.54-0.2-1.03s-0.26-1.01,0.09-1.2C-68.98,47.42-68.62,47.24-68.36,47.96z"/>
			<polygon class="st1" points="-66.93,41.18 -68.2,43.18 -66.15,44.03 -66.53,41.56 			"/>
			<path class="st1" d="M-68.2,43.18l-1.25,2.23l-6-2.14c0,0,0.41-0.37,1.38-0.33C-73.1,42.98-68.2,43.18-68.2,43.18z"/>
			<g>
				<path class="st26" d="M-67.93,43.54l0.59-1.11c0,0,0.23-0.29,0.48,0c0,0,0.36,0.51,0.38,1.11c0.03,0.6-1.36,0.28-1.36,0.28
					S-68.04,43.73-67.93,43.54z"/>
				<path class="st30" d="M-67.88,43.49l0.58-0.97c0,0,0.16-0.27,0.38-0.03S-67.88,43.49-67.88,43.49z"/>
				<path class="st26" d="M-68.16,43.5l-1.43-0.19c0,0-0.43,0.02-0.32,0.44c0,0,0.23,0.67,0.78,1.1c0.54,0.43,1.16-1.08,1.16-1.08
					S-67.91,43.53-68.16,43.5z"/>
				<path class="st30" d="M-68.23,43.54l-1.32-0.14c0,0-0.41-0.07-0.29,0.29C-69.73,44.01-68.23,43.54-68.23,43.54z"/>
				<path class="st25" d="M-67.44,43.83c0,0,0.01-0.38-0.3-0.61c0,0-0.03-0.04-0.14,0.01c-0.11,0.05-0.45,0.2-0.45,0.2
					s-0.07,0.06-0.05,0.14c0.03,0.09,0.15,0.22,0.22,0.56c0,0,0,0.05,0.11,0.02c0.11-0.03,0.55-0.24,0.55-0.24
					S-67.44,43.88-67.44,43.83z"/>
				<circle class="st25" cx="-66.88" cy="43.01" r="0.12"/>
				<circle class="st25" cx="-66.63" cy="43.61" r="0.12"/>
				<circle class="st25" cx="-67.21" cy="43.68" r="0.12"/>
				<circle class="st25" cx="-66.94" cy="43.37" r="0.12"/>
				<circle class="st25" cx="-67.32" cy="43.32" r="0.12"/>
				<circle class="st25" cx="-69.65" cy="44" r="0.12"/>
				<circle class="st25" cx="-69.34" cy="44.28" r="0.12"/>
				<circle class="st25" cx="-68.98" cy="44.58" r="0.12"/>
				<path class="st25" d="M-68.29,44.37c-0.03-0.06-0.11-0.08-0.17-0.05c-0.06,0.03-0.08,0.11-0.05,0.17c0,0,0.03,0.06,0.09,0.07
					C-68.42,44.56-68.32,44.43-68.29,44.37L-68.29,44.37z"/>
				<circle class="st25" cx="-68.53" cy="43.87" r="0.12"/>
				<circle class="st25" cx="-68.74" cy="44.21" r="0.12"/>
				<circle class="st25" cx="-69.1" cy="43.99" r="0.12"/>
			</g>
		</g>
		<path class="st17" d="M-65.19,28.03l-0.05-2.21c0,0-0.55-1.92-0.76-2.82c0,0-0.4-1.17-1-1s-2.06,2.71-2.06,2.71
			s-4.65-1.73-10.72,1.97c0,0-3.21-0.2-5.01,0.26c0,0-1.19,0.1-0.64,2c0,0,1.06,1.45,2.04,2.55c0,0,0.61,0.42,0.2,1.37
			c0,0-1.94,1.49-1.81,2.13l-2,1c0,0,1.78,2.61,3.1,3.66L-87,39c0,0,4.22,3.26,5.94,3.05L-83,43c0,0,4.04,0.88,5.53,0.15
			c0,0,7.97,1.24,11.71-1.1c0,0,3.47-2.07,4.59-5c0,0,0.7-2.09-1.34-2.22c0,0-0.33,0.13-0.43-0.52c-0.1-0.65-0.32-2.99-2.26-5.82
			L-65.19,28.03z"/>
		<path class="st18" d="M-62.51,34.84c2,0.09,1.34,2.22,1.34,2.22c-1.12,2.93-4.59,5-4.59,5c-3.74,2.34-8.3,0.72-8.3,0.72
			c-5.49-0.05-6.9-3.51-6.9-3.51c-0.83-1.96,1.99-2.3,1.99-2.3c6.21,0.45,7.59-2.43,7.59-2.43l1.82,1.28l0.89-0.28l-0.1-0.65
			l0.02-0.37c0,0,3.36,2.17,5.82-0.18C-62.94,34.31-62.89,34.82-62.51,34.84z"/>
		<path class="st18" d="M-80.15,28.87l-3.68-0.67c0,0-1.64-0.16-1.02,0.76c0.61,0.92,1.2,2.04,2.22,2.46c0,0,0.48,0.01,0.8-0.68
			c0,0-1.22-0.55,0.37-0.7c0,0,0.77-0.07,0.1-0.54c0,0-0.74-0.58,1.05-0.16C-80.32,29.34-79.79,29.3-80.15,28.87z"/>
		<path class="st18" d="M-64.56,30.43c0,0-0.18,0.88-1.33,0.47s-2.89-0.62-3.41,1.67l0,1.09c0,0-1.42-2.01-0.16-3.71
			c0,0,1.26-1.78,3.81-0.29c0,0,0.55,0.31,0.95-0.18C-64.7,29.48-64.32,30.03-64.56,30.43z"/>
		<path class="st18" d="M-71.26,33.57c0,0-0.67-2.72-3.5-2.07c0,0-1.55,0.27-3.26,1.76c0,0-1.14,0.6-2.18-0.38
			c0,0-0.78-0.54,0.22-0.63c0,0,0.4,0.07,1.09-0.54c0.69-0.61,2.77-2.62,5.45-1.81C-73.43,29.91-71.32,30.29-71.26,33.57z"/>
		<path class="st20" d="M-71.34,33.35c0,0,0.8,1.96-2.17,3.22s-5.36,0.58-5.36,0.58s-2.7-2.5,2.28-5.1
			C-76.58,32.05-72.57,29.46-71.34,33.35z"/>
		<path class="st20" d="M-63.18,32.95c0,0-1.54-2.29-4.09-2.31c0,0-2.13,0.03-2.03,2.64c0,0-0.05,1.32,1.7,1.88
			c1.76,0.56,3.71,0.11,4.49-0.66C-63.11,34.5-62.76,34.34-63.18,32.95z"/>
		<path class="st31" d="M-64.91,36.24"/>
		<path class="st26" d="M-65.3,39.34c0,0-3,2.47-5.23,0.77c-2.24-1.7-0.34-1.51-0.34-1.51S-68.54,40.99-65.3,39.34z"/>
		<path class="st18" d="M-70.86,36.34c0,0,4.68-2.36,6.74-0.33c0,0,0.95,1.45-0.79,3.11c0,0-3.94,2.57-5.95-0.52
			C-70.87,38.6-71.65,37.16-70.86,36.34z"/>
		<path class="st20" d="M-67.8,37.18c0.08,0.52,0.83,1.09,1.64,0.97c0.81-0.12,1.36-0.89,1.29-1.4s-0.79-0.84-1.6-0.72
			C-67.29,36.15-67.88,36.67-67.8,37.18z"/>
		<circle class="st1" cx="-74.62" cy="34.23" r="1.96"/>
		
			<ellipse transform="matrix(0.9893 -0.1459 0.1459 0.9893 -5.8042 -10.4271)" class="st32" cx="-73.97" cy="34.34" rx="1.32" ry="1.42"/>
		<circle class="st33" cx="-66.52" cy="32.96" r="1.62"/>
		
			<ellipse transform="matrix(0.9893 -0.1459 0.1459 0.9893 -5.5287 -9.2828)" class="st32" cx="-66.03" cy="33.04" rx="1.14" ry="1.26"/>
		<g>
			<path class="st19" d="M-54.62,52.3c0,0-0.51,0.33-2.02-0.06c-1.51-0.39-8.66-2.55-12.54-1.17c-3.88,1.38-1.37,4-1.37,4
				s1.64,1.55,5.1,0.15c0,0,0.69-0.11,2.74,0.05c2.04,0.16,2.02,0.26,5.44,0.26c0,0,0.93-0.07,2.05,0.15
				C-55.22,55.69-53.53,54.08-54.62,52.3z"/>
			<path class="st20" d="M-55.22,55.69c0,0,1.72-1.6,0.6-3.39c0,0,0.55-0.67,1.17-1.03c0.62-0.36,1.23,0.48,1.03,1.74
				c-0.2,1.26-0.42,2.06-1.17,2.69S-55.22,55.69-55.22,55.69z"/>
		</g>
		<rect x="-94.11" y="53" class="st14" width="36.82" height="8.89"/>
		<path class="st17" d="M-71.78,42.82c0,0-5.54-0.6-4.62,2.98c0.92,3.58,14.11,3.71,14.11,3.71s2.69,0.01,4.57-0.44
			c0,0,0.59-1.74-0.19-2.93S-69.04,43.01-71.78,42.82z"/>
		<path class="st20" d="M-57.5,45.87c0,0-1.86,1.37-0.07,3.2c0,0,1.81,0.4,3.54-0.09c0,0,0.65-0.24,0.76-0.49
			c0.11-0.25,0.05-0.45-0.16-0.42c-0.21,0.02-0.72,0.43-1.35,0.39c-0.62-0.04,1.7-0.08,1.97-1.11c0,0,0.06-0.25-0.69-0.06
			c0,0-0.78,0.25-1.44,0.27c0,0,1.33-0.4,1.8-0.91c0,0,0.37-0.75-0.65-0.41c0,0-0.85,0.36-1.67,0.39c0,0,1.7-0.69,1.66-1.3
			c0,0,0.04-0.48-0.79,0.06s-1.91,0.39-1.91,0.39s0.34-0.42,0.81-0.65c0,0,0.44-0.2,0.14-0.54C-55.52,44.56-56.1,44.2-57.5,45.87z"
			/>
		<path class="st34" d="M-60.66,39.43c0,0,6.34,9.53,7.67,15.84c0,0,1.91,0,1.91-2.87l-1.91-27.73c0,0-5.74-4.78-8.75-7.1
			L-60.66,39.43z"/>
		<path class="st14" d="M-53.98,56.26c0,0,2.58,1.1,3.7-1.38S-60.7,38.54-60.7,38.54s-1.19-0.47-1.04,0.96
			C-61.59,40.93-54.97,48.64-53.98,56.26z"/>
		<path class="st14" d="M-62.55,17.98l0.81,21.52l1.08-0.08l-1.08-21.77C-61.74,17.65-62.55,17.02-62.55,17.98z"/>
		<path class="st35" d="M-51.76,56.21l-5.05,3.51c-0.65,0.45-1.53,0.29-1.98-0.36l-1.8-2.59c-0.45-0.65-0.29-1.53,0.36-1.98
			l5.62-2.69c0.65-0.45,1.53-0.29,1.98,0.36l1.23,1.76C-50.96,54.87-51.12,55.76-51.76,56.21z"/>
		<path class="st18" d="M-80,38c0,0,4.53-3.34,8.76-3.17L-71,37L-80,38z"/>
		<path class="st18" d="M-63.17,34.82c0,0-3.61-2.18-5.22,0l0.25,0.81C-68.14,35.64-63.34,35.65-63.17,34.82z"/>
		<path class="st15" d="M-111.25,74.14c0-5.54,6.32-10.03,14.13-10.03S-83,68.6-83,74.14"/>
		<path class="st15" d="M-63.25,74.14c0-5.54,6.32-10.03,14.13-10.03S-35,68.6-35,74.14"/>
		<ellipse class="st36" cx="-97.13" cy="74.36" rx="12.49" ry="8.86"/>
		<ellipse class="st12" cx="-97.13" cy="74.36" rx="6.46" ry="4.58"/>
		<ellipse class="st37" cx="-97.13" cy="74.36" rx="4.63" ry="3.28"/>
		<ellipse class="st38" cx="-97.13" cy="74.36" rx="7.94" ry="5.64"/>
		<ellipse class="st36" cx="-49.25" cy="74.36" rx="12.49" ry="8.86"/>
		<ellipse class="st12" cx="-49.25" cy="74.36" rx="6.46" ry="4.58"/>
		<ellipse class="st37" cx="-49.25" cy="74.36" rx="4.75" ry="3.37"/>
		<ellipse class="st38" cx="-49.25" cy="74.36" rx="7.75" ry="5.5"/>
	</g>
	<g>
		<g>
			<polyline class="st39" points="81.62,29.03 50.27,0 9.46,12.64 0,54.3 31.35,83.33 			"/>
			<polyline class="st39" points="73.13,95.86 100,62.64 84.67,22.76 42.47,16.1 15.6,49.31 			"/>
			<polyline class="st39" points="32.4,43.92 15.86,67.43 27.94,93.51 56,100 73,96 			"/>
			<polygon class="st40" points="9.46,12.64 45.81,30.64 50.27,0 			"/>
			<polygon class="st40" points="72.84,20.9 49.21,32.28 66.57,47.44 84.67,22.76 			"/>
			<polygon class="st40" points="45.81,30.64 20.11,51.01 50.64,39.28 49.21,32.28 			"/>
			<polygon class="st40" points="21.47,53.58 44.43,77.73 81.62,68.02 49.21,65.65 			"/>
			<polygon class="st40" points="45.81,80 56,97 65,92 			"/>
			<polygon class="st41" points="50.64,39.28 62.37,66.62 49.21,65.65 21.47,53.58 20.11,51.01 			"/>
			<polygon class="st41" points="84.67,22.76 66.57,47.44 81.62,68.02 100,62.64 			"/>
			<polygon class="st41" points="6.43,26 23.68,33.04 20.11,51.01 0,54.3 14,32 			"/>
		</g>
		<polygon class="st39" points="0,91.32 6.54,79.95 17.07,77 22,84.16 22,94.37 10.35,99 		"/>
		<polygon class="st40" points="6.54,79.95 17.07,77 10,87 4.05,84.28 		"/>
		<polygon class="st41" points="22,84.16 17.07,77 10,87 12,91 18.74,91 		"/>
		<polygon class="st40" points="0,91.32 12,91 7.89,95.86 		"/>
	</g>
</g>
<g id="レイヤー_2">
</g>
</svg>
