<?xml version="1.0" encoding="UTF-8" standalone="no"?>
<!DOCTYPE svg PUBLIC "-//W3C//DTD SVG 1.1//EN" "http://www.w3.org/Graphics/SVG/1.1/DTD/svg11.dtd">
<svg width="100%" height="100%" viewBox="0 0 30 30" version="1.1" xmlns="http://www.w3.org/2000/svg" xmlns:xlink="http://www.w3.org/1999/xlink" xml:space="preserve" xmlns:serif="http://www.serif.com/" style="fill-rule:evenodd;clip-rule:evenodd;stroke-linejoin:round;stroke-miterlimit:2;">
    <g transform="matrix(0.599898,0,0,0.804608,-42.1009,-5.62616)">
        <path d="M95.55,44.27L111.5,44.27L111.5,24.68L113.97,25.63L120.16,13.61L111.51,8.75C111.51,8.75 109.86,7.88 104.93,7.01L104.54,7.01C104.54,7.01 101.8,14.52 95.55,15.73L94.77,15.73C88.51,14.51 85.77,7 85.77,7L85.38,7C80.44,7.87 78.8,8.74 78.8,8.74L70.15,13.6L76.34,25.62L78.81,24.67L78.81,44.26L95.55,44.26L95.55,44.27Z" style="fill:white;fill-rule:nonzero;"/>
    </g>
</svg>
