<?xml version="1.0" encoding="utf-8"?>
<!-- Generator: Adobe Illustrator 28.0.0, SVG Export Plug-In . SVG Version: 6.00 Build 0)  -->
<svg version="1.1" xmlns="http://www.w3.org/2000/svg" xmlns:xlink="http://www.w3.org/1999/xlink" x="0px" y="0px"
	 viewBox="0 0 100 100" style="enable-background:new 0 0 100 100;" xml:space="preserve">
<style type="text/css">
	.st0{fill:#686868;}
	.st1{fill:#FFF24D;}
	.st2{fill:#0000FF;}
	.st3{fill:#FFFFFF;}
	.st4{fill:#00CE75;}
	.st5{fill:none;stroke:#00CE75;stroke-width:3;stroke-miterlimit:10;}
	.st6{fill:#EAB2EA;}
	.st7{fill:none;stroke:#EAB2EA;stroke-width:4;stroke-miterlimit:10;}
	.st8{fill:none;stroke:#EAB2EA;stroke-width:4;stroke-linecap:round;stroke-miterlimit:10;}
	.st9{fill:#703B2F;}
	.st10{fill:none;stroke:#FFFFFF;stroke-width:4;stroke-linecap:round;stroke-miterlimit:10;}
	.st11{fill:none;stroke:#703B2F;stroke-width:4;stroke-miterlimit:10;}
	.st12{fill:none;stroke:#703B2F;stroke-width:4;stroke-miterlimit:10;stroke-dasharray:2.9065,2.9065;}
	.st13{fill:none;stroke:#703B2F;stroke-width:4;stroke-miterlimit:10;stroke-dasharray:2.9392,2.9392;}
	.st14{fill:#E20000;}
	.st15{fill:#2C1E51;}
	.st16{fill:#F08603;}
	.st17{fill:#516633;}
	.st18{fill:#ECE5D4;}
	.st19{fill:#5A703F;}
	.st20{fill:#252727;}
	.st21{fill:none;stroke:#B5B4B4;stroke-miterlimit:10;}
	.st22{fill:#DDDDDD;}
	.st23{fill:#7F81A0;}
	.st24{fill:#752400;}
	.st25{fill:#DD8C17;}
	.st26{fill:#E05815;}
	.st27{fill:#B5B4B4;}
	.st28{fill:#9B566B;}
	.st29{fill:#EDA9BB;}
	.st30{fill:#A53F13;}
	.st31{fill:none;stroke:#231815;stroke-linecap:round;stroke-miterlimit:10;}
	.st32{fill:#72AD00;}
	.st33{fill:#F0F4FA;}
	.st34{fill:#00B6E0;}
	.st35{fill:#E20000;stroke:#844E4E;stroke-width:0.75;stroke-miterlimit:10;}
	.st36{fill:#1C1C1C;}
	.st37{fill:none;stroke:#BCBCBC;stroke-miterlimit:10;}
	.st38{fill:none;stroke:#686868;stroke-width:0.25;stroke-miterlimit:10;}
</style>
<g id="レイヤー_1">
	<g>
		<path class="st6" d="M0,50L0,50C0,22.39,22.39,0,50,0l0,0c27.61,0,50,22.39,50,50v0c0,27.61-22.39,50-50,50h0
			C22.39,100,0,77.61,0,50z"/>
		<ellipse class="st3" cx="50" cy="38.27" rx="35.71" ry="26.02"/>
		<polygon class="st3" points="75.65,79.59 26.01,79.59 19.39,33.67 80.61,33.67 		"/>
		<path class="st7" d="M12.96,35.96c0,0,6.96,0.54,13.23-2.6c0,0,6.54-4.17,12.68,0c0,0,12.89,11.15,25.19,0.36
			c0,0,6.77-5.31,14.18-0.05c0,0,3.72,3.3,8.19,3.26"/>
		
			<rect x="29.29" y="19.04" transform="matrix(0.9401 -0.3409 0.3409 0.9401 -5.7404 12.5576)" class="st6" width="7.14" height="7.14"/>
		
			<rect x="47.75" y="12.19" transform="matrix(0.3615 -0.9324 0.9324 0.3615 18.0732 57.9165)" class="st6" width="7.14" height="7.14"/>
		
			<rect x="64.08" y="18.31" transform="matrix(0.9401 -0.3409 0.3409 0.9401 -3.408 24.3756)" class="st6" width="7.14" height="7.14"/>
		<line class="st7" x1="30.31" y1="53.73" x2="32.35" y2="78.22"/>
		<line class="st7" x1="40.51" y1="55.78" x2="42.55" y2="78.22"/>
		<line class="st7" x1="51.32" y1="55.78" x2="51.32" y2="78.22"/>
		<line class="st7" x1="71.43" y1="53.73" x2="69.34" y2="78.22"/>
		<line class="st7" x1="62.24" y1="55.78" x2="60.16" y2="78.22"/>
		<rect x="26.23" y="77.2" class="st3" width="47.96" height="2.04"/>
		<path class="st8" d="M23.88,51.02c0,0,25.36,13.61,52.63,0"/>
		
			<rect x="51.56" y="29.07" transform="matrix(0.3615 -0.9324 0.9324 0.3615 5.0139 70.9091)" class="st6" width="5.44" height="5.44"/>
	</g>
</g>
<g id="レイヤー_2">
</g>
</svg>
