<?xml version="1.0" encoding="utf-8"?>
<!-- Generator: Adobe Illustrator 28.0.0, SVG Export Plug-In . SVG Version: 6.00 Build 0)  -->
<svg version="1.1" xmlns="http://www.w3.org/2000/svg" xmlns:xlink="http://www.w3.org/1999/xlink" x="0px" y="0px"
	 viewBox="0 0 100 100" style="enable-background:new 0 0 100 100;" xml:space="preserve">
<style type="text/css">
	.st0{fill:#686868;}
	.st1{fill:#FFF24D;}
	.st2{fill:#0000FF;}
	.st3{fill:#FFFFFF;}
	.st4{fill:#00CE75;}
	.st5{fill:none;stroke:#00CE75;stroke-width:3;stroke-miterlimit:10;}
	.st6{fill:#EAB2EA;}
	.st7{fill:none;stroke:#EAB2EA;stroke-width:4;stroke-miterlimit:10;}
	.st8{fill:none;stroke:#EAB2EA;stroke-width:4;stroke-linecap:round;stroke-miterlimit:10;}
	.st9{fill:#703B2F;}
	.st10{fill:none;stroke:#FFFFFF;stroke-width:4;stroke-linecap:round;stroke-miterlimit:10;}
	.st11{fill:none;stroke:#703B2F;stroke-width:4;stroke-miterlimit:10;}
	.st12{fill:none;stroke:#703B2F;stroke-width:4;stroke-miterlimit:10;stroke-dasharray:2.9065,2.9065;}
	.st13{fill:none;stroke:#703B2F;stroke-width:4;stroke-miterlimit:10;stroke-dasharray:2.9392,2.9392;}
	.st14{fill:#E20000;}
	.st15{fill:#2C1E51;}
	.st16{fill:#F08603;}
	.st17{fill:#516633;}
	.st18{fill:#ECE5D4;}
	.st19{fill:#5A703F;}
	.st20{fill:#252727;}
	.st21{fill:none;stroke:#B5B4B4;stroke-miterlimit:10;}
	.st22{fill:#DDDDDD;}
	.st23{fill:#7F81A0;}
	.st24{fill:#752400;}
	.st25{fill:#DD8C17;}
	.st26{fill:#E05815;}
	.st27{fill:#B5B4B4;}
	.st28{fill:#9B566B;}
	.st29{fill:#EDA9BB;}
	.st30{fill:#A53F13;}
	.st31{fill:none;stroke:#231815;stroke-linecap:round;stroke-miterlimit:10;}
	.st32{fill:#72AD00;}
	.st33{fill:#F0F4FA;}
	.st34{fill:#00B6E0;}
	.st35{fill:#E20000;stroke:#844E4E;stroke-width:0.75;stroke-miterlimit:10;}
	.st36{fill:#1C1C1C;}
	.st37{fill:none;stroke:#BCBCBC;stroke-miterlimit:10;}
	.st38{fill:none;stroke:#686868;stroke-width:0.25;stroke-miterlimit:10;}
</style>
<g id="レイヤー_1">
	<path class="st9" d="M0.36,50.28L0.36,50.28c0-27.61,22.39-50,50-50h0c27.61,0,50,22.39,50,50v0c0,27.61-22.39,50-50,50h0
		C22.75,100.28,0.36,77.89,0.36,50.28z"/>
	<path class="st10" d="M23.29,84.55c0,0,19.39-28.63,54.16-30.18c0,0-3.14-46.35-32.73-37.17c0,0-10.2,3.06-10.2,11.22
		s8.16,23.47,40.82,32.65"/>
	<g>
		<g>
			<path class="st11" d="M23.29,84.55c0,0,0.3-0.44,0.88-1.21"/>
			<path class="st12" d="M25.98,81.08c6.2-7.39,22.94-24.2,48.5-26.5"/>
			<path class="st11" d="M75.95,54.46c0.5-0.03,1-0.06,1.5-0.08c0,0-0.04-0.54-0.14-1.49"/>
			<path class="st13" d="M76.93,49.98c-1.67-11.35-8.3-40.19-32.22-32.77c0,0-10.2,3.06-10.2,11.22c0,7.92,7.68,22.56,37.96,31.82"
				/>
			<path class="st11" d="M73.89,60.67c0.48,0.14,0.96,0.28,1.44,0.41"/>
		</g>
	</g>
</g>
<g id="レイヤー_2">
</g>
</svg>
